<mxfile host="app.diagrams.net" modified="2024-01-14T18:33:48.204Z" agent="Mozilla/5.0 (Linux; Android 10; K) AppleWebKit/537.36 (KHTML, like Gecko) Chrome/120.0.0.0 Mobile Safari/537.36" etag="jnsJqDu2Tfi8MmepX9yJ" version="22.1.18" type="onedrive">
  <diagram name="PÃ¡gina-1" id="mKk7J1A5Rkl9VyjjoB6N">
    <mxGraphModel grid="1" page="0" gridSize="10" guides="1" tooltips="1" connect="1" arrows="1" fold="1" pageScale="1" pageWidth="827" pageHeight="1169" math="0" shadow="0">
      <root>
        <mxCell id="0" />
        <object label="Oracle" id="EHuJXtPzy3w8dPUdHfM9-4">
          <mxCell parent="0" />
        </object>
        <mxCell id="aX5uT2Mv5E4Rf6gpRILl-14" value="" style="edgeStyle=none;curved=1;rounded=0;sketch=1;hachureGap=4;jiggle=2;curveFitting=1;orthogonalLoop=1;jettySize=auto;html=1;fontFamily=Architects Daughter;fontSource=https%3A%2F%2Ffonts.googleapis.com%2Fcss%3Ffamily%3DArchitects%2BDaughter;fontSize=16;startSize=8;endSize=8;entryX=0;entryY=0.75;entryDx=0;entryDy=0;" edge="1" parent="EHuJXtPzy3w8dPUdHfM9-4" source="aX5uT2Mv5E4Rf6gpRILl-7" target="aX5uT2Mv5E4Rf6gpRILl-7">
          <mxGeometry relative="1" as="geometry">
            <mxPoint x="250" y="-90" as="targetPoint" />
          </mxGeometry>
        </mxCell>
        <mxCell id="aX5uT2Mv5E4Rf6gpRILl-7" value="" style="image;html=1;image=img/lib/clip_art/computers/Server_Rack_128x128.png;sketch=1;hachureGap=4;jiggle=2;curveFitting=1;fontFamily=Architects Daughter;fontSource=https://fonts.googleapis.com/css?family=Architects+Daughter;fontSize=20;" vertex="1" parent="EHuJXtPzy3w8dPUdHfM9-4">
          <mxGeometry x="307" y="-125" width="62" height="80" as="geometry" />
        </mxCell>
        <mxCell id="aX5uT2Mv5E4Rf6gpRILl-6" value="Internet alt1" style="sketch=0;outlineConnect=0;fontColor=#232F3E;gradientColor=none;strokeColor=#232F3E;fillColor=#ffffff;dashed=0;verticalLabelPosition=bottom;verticalAlign=top;align=center;html=1;fontSize=12;fontStyle=0;aspect=fixed;shape=mxgraph.aws4.resourceIcon;resIcon=mxgraph.aws4.internet_alt1;hachureGap=4;jiggle=2;curveFitting=1;fontFamily=Architects Daughter;fontSource=https://fonts.googleapis.com/css?family=Architects+Daughter;" vertex="1" parent="EHuJXtPzy3w8dPUdHfM9-4">
          <mxGeometry x="147" y="83" width="190" height="190" as="geometry" />
        </mxCell>
        <mxCell id="aX5uT2Mv5E4Rf6gpRILl-10" value="" style="image;html=1;image=img/lib/clip_art/networking/Wireless_Router_N_128x128.png;sketch=1;hachureGap=4;jiggle=2;curveFitting=1;fontFamily=Architects Daughter;fontSource=https%3A%2F%2Ffonts.googleapis.com%2Fcss%3Ffamily%3DArchitects%2BDaughter;fontSize=20;" vertex="1" parent="EHuJXtPzy3w8dPUdHfM9-4">
          <mxGeometry x="349" y="338" width="80" height="80" as="geometry" />
        </mxCell>
        <mxCell id="aX5uT2Mv5E4Rf6gpRILl-11" value="" style="image;html=1;image=img/lib/clip_art/telecommunication/iPhone_128x128.png;sketch=1;hachureGap=4;jiggle=2;curveFitting=1;fontFamily=Architects Daughter;fontSource=https%3A%2F%2Ffonts.googleapis.com%2Fcss%3Ffamily%3DArchitects%2BDaughter;fontSize=20;" vertex="1" parent="EHuJXtPzy3w8dPUdHfM9-4">
          <mxGeometry x="336" y="527" width="80" height="80" as="geometry" />
        </mxCell>
        <mxCell id="aX5uT2Mv5E4Rf6gpRILl-12" value="" style="image;html=1;image=img/lib/clip_art/computers/Network_128x128.png;sketch=1;hachureGap=4;jiggle=2;curveFitting=1;fontFamily=Architects Daughter;fontSource=https%3A%2F%2Ffonts.googleapis.com%2Fcss%3Ffamily%3DArchitects%2BDaughter;fontSize=20;" vertex="1" parent="EHuJXtPzy3w8dPUdHfM9-4">
          <mxGeometry x="239" y="391" width="80" height="80" as="geometry" />
        </mxCell>
        <mxCell id="aX5uT2Mv5E4Rf6gpRILl-15" style="edgeStyle=none;curved=1;rounded=0;sketch=1;hachureGap=4;jiggle=2;curveFitting=1;orthogonalLoop=1;jettySize=auto;html=1;entryX=0.75;entryY=1;entryDx=0;entryDy=0;fontFamily=Architects Daughter;fontSource=https%3A%2F%2Ffonts.googleapis.com%2Fcss%3Ffamily%3DArchitects%2BDaughter;fontSize=16;startSize=8;endSize=8;" edge="1" parent="EHuJXtPzy3w8dPUdHfM9-4" source="aX5uT2Mv5E4Rf6gpRILl-13" target="aX5uT2Mv5E4Rf6gpRILl-0">
          <mxGeometry relative="1" as="geometry" />
        </mxCell>
        <mxCell id="aX5uT2Mv5E4Rf6gpRILl-13" value="" style="image;html=1;image=img/lib/clip_art/computers/Server_Rack_128x128.png;sketch=1;hachureGap=4;jiggle=2;curveFitting=1;fontFamily=Architects Daughter;fontSource=https://fonts.googleapis.com/css?family=Architects+Daughter;fontSize=20;" vertex="1" parent="EHuJXtPzy3w8dPUdHfM9-4">
          <mxGeometry x="218" width="80" height="80" as="geometry" />
        </mxCell>
        <mxCell id="aX5uT2Mv5E4Rf6gpRILl-18" value="" style="edgeStyle=none;curved=1;rounded=0;sketch=1;hachureGap=4;jiggle=2;curveFitting=1;orthogonalLoop=1;jettySize=auto;html=1;fontFamily=Architects Daughter;fontSource=https%3A%2F%2Ffonts.googleapis.com%2Fcss%3Ffamily%3DArchitects%2BDaughter;fontSize=16;startSize=8;endSize=8;" edge="1" parent="EHuJXtPzy3w8dPUdHfM9-4" source="aX5uT2Mv5E4Rf6gpRILl-0" target="aX5uT2Mv5E4Rf6gpRILl-7">
          <mxGeometry relative="1" as="geometry">
            <mxPoint x="250" y="-90" as="sourcePoint" />
          </mxGeometry>
        </mxCell>
        <object label="" id="aX5uT2Mv5E4Rf6gpRILl-0">
          <mxCell style="image;html=1;image=img/lib/clip_art/computers/Server_Rack_128x128.png;sketch=1;hachureGap=4;jiggle=2;curveFitting=1;fontFamily=Architects Daughter;fontSource=https%3A%2F%2Ffonts.googleapis.com%2Fcss%3Ffamily%3DArchitects%2BDaughter;fontSize=20;" vertex="1" parent="EHuJXtPzy3w8dPUdHfM9-4">
            <mxGeometry x="138" y="-140" width="80" height="80" as="geometry" />
          </mxCell>
        </object>
        <mxCell id="aX5uT2Mv5E4Rf6gpRILl-16" style="edgeStyle=none;curved=1;rounded=0;sketch=1;hachureGap=4;jiggle=2;curveFitting=1;orthogonalLoop=1;jettySize=auto;html=1;fontFamily=Architects Daughter;fontSource=https%3A%2F%2Ffonts.googleapis.com%2Fcss%3Ffamily%3DArchitects%2BDaughter;fontSize=16;startSize=8;endSize=8;" edge="1" parent="EHuJXtPzy3w8dPUdHfM9-4" source="aX5uT2Mv5E4Rf6gpRILl-0">
          <mxGeometry relative="1" as="geometry">
            <mxPoint x="250" as="targetPoint" />
            <Array as="points">
              <mxPoint x="230" y="-30" />
            </Array>
          </mxGeometry>
        </mxCell>
        <mxCell id="aX5uT2Mv5E4Rf6gpRILl-17" value="" style="edgeStyle=none;curved=1;rounded=0;sketch=1;hachureGap=4;jiggle=2;curveFitting=1;orthogonalLoop=1;jettySize=auto;html=1;fontFamily=Architects Daughter;fontSource=https://fonts.googleapis.com/css?family=Architects+Daughter;fontSize=16;startSize=8;endSize=8;" edge="1" parent="EHuJXtPzy3w8dPUdHfM9-4" source="aX5uT2Mv5E4Rf6gpRILl-13">
          <mxGeometry relative="1" as="geometry">
            <mxPoint x="339" as="sourcePoint" />
            <mxPoint x="319" y="-50" as="targetPoint" />
          </mxGeometry>
        </mxCell>
        <mxCell id="aX5uT2Mv5E4Rf6gpRILl-19" value="" style="edgeStyle=none;curved=1;rounded=0;sketch=1;hachureGap=4;jiggle=2;curveFitting=1;orthogonalLoop=1;jettySize=auto;html=1;fontFamily=Architects Daughter;fontSource=https://fonts.googleapis.com/css?family=Architects+Daughter;fontSize=16;startSize=8;endSize=8;exitX=0;exitY=0.25;exitDx=0;exitDy=0;" edge="1" parent="EHuJXtPzy3w8dPUdHfM9-4" source="aX5uT2Mv5E4Rf6gpRILl-7" target="aX5uT2Mv5E4Rf6gpRILl-0">
          <mxGeometry relative="1" as="geometry">
            <mxPoint x="250" y="-130" as="sourcePoint" />
            <mxPoint x="270" y="-100" as="targetPoint" />
            <Array as="points">
              <mxPoint x="240" y="-130" />
              <mxPoint x="-180" y="-110" />
            </Array>
          </mxGeometry>
        </mxCell>
        <mxCell id="aX5uT2Mv5E4Rf6gpRILl-20" style="edgeStyle=none;curved=1;rounded=0;sketch=1;hachureGap=4;jiggle=2;curveFitting=1;orthogonalLoop=1;jettySize=auto;html=1;fontFamily=Architects Daughter;fontSource=https://fonts.googleapis.com/css?family=Architects+Daughter;fontSize=16;startSize=8;endSize=8;exitX=0.65;exitY=0;exitDx=0;exitDy=0;exitPerimeter=0;entryX=0;entryY=0.75;entryDx=0;entryDy=0;" edge="1" parent="EHuJXtPzy3w8dPUdHfM9-4" source="aX5uT2Mv5E4Rf6gpRILl-13" target="aX5uT2Mv5E4Rf6gpRILl-7">
          <mxGeometry relative="1" as="geometry">
            <mxPoint x="290" y="-40" as="sourcePoint" />
            <mxPoint x="322" y="10" as="targetPoint" />
            <Array as="points">
              <mxPoint x="302" y="-20" />
            </Array>
          </mxGeometry>
        </mxCell>
      </root>
    </mxGraphModel>
  </diagram>
</mxfile>
